<svg xmlns="http://www.w3.org/2000/svg" viewBox="0 0 106.6 38.2"><defs><style>.cls-1{fill:#ee2a7b;}.cls-2{fill:#fff;}.cls-3{fill:#231f20;}</style></defs><title>Zasób 1</title><g id="Warstwa_2" data-name="Warstwa 2"><g id="Warstwa_1-2" data-name="Warstwa 1"><path class="cls-1" d="M8.06,37.37A7.23,7.23,0,0,1,2.94,25L25,2.94A7.23,7.23,0,0,1,35.25,13.17L13.17,35.25a7.17,7.17,0,0,1-5.11,2.12"/><path class="cls-2" d="M30.14,1.65a6.41,6.41,0,0,1,4.53,10.93L12.58,34.67a6.4,6.4,0,0,1-9-9L25.62,3.53a6.37,6.37,0,0,1,4.52-1.88m0-1.65a8,8,0,0,0-5.69,2.36L2.36,24.45A8.05,8.05,0,1,0,13.75,35.84L35.84,13.75A8.06,8.06,0,0,0,30.14,0"/><path class="cls-1" d="M30.14,37.37A7.17,7.17,0,0,1,25,35.25L2.94,13.17A7.23,7.23,0,0,1,13.17,2.94L35.25,25a7.23,7.23,0,0,1-5.11,12.34"/><path class="cls-2" d="M8.06,1.65a6.39,6.39,0,0,1,4.52,1.88L34.67,25.62a6.4,6.4,0,0,1-9,9.05L3.53,12.58A6.41,6.41,0,0,1,8.06,1.65M8.06,0a8.06,8.06,0,0,0-5.7,13.75L24.45,35.84A8.05,8.05,0,1,0,35.84,24.45L13.75,2.36A8,8,0,0,0,8.06,0"/><path class="cls-1" d="M19.1,29a.82.82,0,0,1-.59-.24L9.45,19.69l-.09-.1L2.94,13.17A7.23,7.23,0,0,1,13.17,2.94L19.1,8.87,25,2.94A7.23,7.23,0,0,1,35.25,13.17l-6.42,6.42a.43.43,0,0,1-.09.1l-9.06,9.06a.78.78,0,0,1-.58.24"/><path class="cls-2" d="M30.14,1.65a6.41,6.41,0,0,1,4.53,10.93L28.15,19.1h0L19.1,28.17,10,19.11h0L3.53,12.58a6.4,6.4,0,1,1,9.05-9L19.1,10l6.52-6.51a6.37,6.37,0,0,1,4.52-1.88m0-1.65a8,8,0,0,0-5.69,2.36L19.1,7.71,13.75,2.36A8.06,8.06,0,0,0,0,8.06a8,8,0,0,0,2.36,5.69l6.38,6.38a.86.86,0,0,0,.13.14l9.06,9.07a1.67,1.67,0,0,0,2.34,0l9.06-9.07a.81.81,0,0,0,.12-.14l6.39-6.38A8.06,8.06,0,0,0,30.14,0"/><path class="cls-3" d="M81.66,14.53a3.51,3.51,0,0,0-3.4-1.85H73.75v10H78c1.6,0,3-.47,3.67-2a8.5,8.5,0,0,0,.36-3.18,7,7,0,0,0-.39-3m-2,4.75a1.88,1.88,0,0,1-1.91,1H75.94V15.09h1.89a1.84,1.84,0,0,1,1.78,1,3.67,3.67,0,0,1,.2,1.55,4.34,4.34,0,0,1-.19,1.67"/><path class="cls-3" d="M59.18,22.57V16.63c0-1.27-.61-2-1.88-2a1.9,1.9,0,0,0-1.87,2v5.94H53.15V16.63c0-1.27-.62-2-1.87-2a1.91,1.91,0,0,0-1.89,2v5.94H47.11v-10h2.28v1.07l.06,0a3.48,3.48,0,0,1,2.66-1.19,3,3,0,0,1,2.76,1.43A4.31,4.31,0,0,1,58,12.5a3.19,3.19,0,0,1,3.4,3.5v6.57Z"/><path class="cls-3" d="M65.63,18.24a2.12,2.12,0,0,0,2.11,2.39,3.81,3.81,0,0,0,2.36-.94c.48.54.84,1,1.33,1.59a5.51,5.51,0,0,1-3.77,1.41c-2.11,0-4.39-1-4.39-5.08,0-3.84,2.3-5.13,4.35-5.13,2.68,0,4.29,1.87,4.29,4.77v1Zm0-1.61H69.5c-.09-1.35-.87-2.08-1.9-2.08s-1.81.77-1.93,2.08"/><rect class="cls-3" x="83.89" y="12.6" width="2.27" height="9.97"/><path class="cls-3" d="M92.33,22.69A6.17,6.17,0,0,1,88,21.18l1.23-1.63a4.52,4.52,0,0,0,3.2,1.18c1,0,1.74-.42,1.74-1.14s-.55-1-1.78-1.13c-1.77-.2-3.78-.52-3.78-2.84,0-2,1.71-3.12,3.72-3.12a6,6,0,0,1,3.83,1.12l-1.09,1.74a4.89,4.89,0,0,0-2.7-.87c-1.07,0-1.61.48-1.61,1.07s.73.91,2.38,1.09,3.26.78,3.26,2.88-1.83,3.16-4.07,3.16"/><path class="cls-3" d="M106.6,15.8v6.77h-2.28v-.89a.07.07,0,0,0,0,0,3.24,3.24,0,0,1-2.6,1c-2.11,0-3.44-1.07-3.44-3,0-1.61,1.17-3,3.38-3h2.7v-.73c0-.76-.42-1.43-2-1.43a3.17,3.17,0,0,0-2.38.83l-1.21-1.53a5.09,5.09,0,0,1,3.71-1.31c2.24,0,4.13.72,4.13,3.3m-4.43,4.93c1,0,2-.32,2.13-1.39a8.57,8.57,0,0,0,0-.94H102c-1.15,0-1.61.48-1.61,1.11s.44,1.22,1.77,1.22"/><path class="cls-3" d="M49.6,28.22v-.4h-.91v-.36H50v.74a1.46,1.46,0,1,1-2.91-.06V27a1.39,1.39,0,0,1,1.45-1.51,1.35,1.35,0,0,1,1.32.83l-.37.17a1,1,0,0,0-.94-.62A1,1,0,0,0,47.49,27v1.17a1.06,1.06,0,1,0,2.11.08"/><path class="cls-3" d="M53,28.64H51.15c-.12.33-.24.66-.35,1h-.42c.5-1.38,1-2.77,1.51-4.15h.37l1.52,4.15h-.42c-.13-.32-.24-.65-.35-1M52.07,26c-.07.21-.21.63-.37,1.06s-.34,1-.44,1.24h1.63L52.42,27l-.34-1Z"/><path class="cls-3" d="M56,29.62H54.31V25.47h1.54a1.05,1.05,0,0,1,1.2,1.07.93.93,0,0,1-.66.92v0a1,1,0,0,1,.76,1A1.09,1.09,0,0,1,56,29.62m-1.31-3.8v1.5H55.8a.76.76,0,1,0,0-1.5Zm0,1.85v1.58h1.17a.79.79,0,1,0,0-1.58Z"/><rect class="cls-3" x="57.85" y="25.47" width="0.4" height="4.16"/><path class="cls-3" d="M60.33,27.28l-.72-1.12a0,0,0,0,1,0,0v3.45h-.4V25.47h.4l1.51,2.29L61.86,29h0V25.47h.39v4.15h-.39Z"/><polygon class="cls-3" points="63.18 29.62 63.18 25.47 65.76 25.47 65.76 25.84 63.59 25.84 63.59 27.34 65.44 27.34 65.44 27.7 63.59 27.7 63.59 29.25 65.76 29.25 65.76 29.62 63.18 29.62"/><polygon class="cls-3" points="67.57 25.82 67.57 29.62 67.16 29.62 67.16 25.82 65.94 25.82 65.94 25.47 68.78 25.47 68.78 25.82 67.57 25.82"/><path class="cls-3" d="M72.91,29.62l-.84-1.87H71v1.87h-.41V25.47h1.66a1.1,1.1,0,0,1,1.19,1.1,1.14,1.14,0,0,1-1,1.14l.88,1.91Zm-.75-3.8H71v1.57h1.14a.8.8,0,0,0,.88-.82c0-.52-.38-.75-.86-.75"/><polygon class="cls-3" points="74.12 29.62 74.12 25.47 76.7 25.47 76.7 25.84 74.53 25.84 74.53 27.34 76.38 27.34 76.38 27.7 74.53 27.7 74.53 29.25 76.7 29.25 76.7 29.62 74.12 29.62"/><polygon class="cls-3" points="79.75 29.62 79.75 27.7 77.72 27.7 77.72 29.62 77.32 29.62 77.32 25.47 77.72 25.47 77.72 27.34 79.75 27.34 79.75 25.47 80.16 25.47 80.16 29.62 79.75 29.62"/><path class="cls-3" d="M83.32,28.64H81.45c-.12.33-.23.66-.34,1h-.43c.51-1.38,1-2.77,1.52-4.15h.37l1.52,4.15h-.43c-.12-.32-.23-.65-.34-1M82.37,26c-.06.21-.21.63-.36,1.06s-.34,1-.44,1.24H83.2L82.73,27l-.34-1Z"/><path class="cls-3" d="M86.33,29.62H84.62V25.47h1.54a1.06,1.06,0,0,1,1.2,1.07.93.93,0,0,1-.66.92v0a1,1,0,0,1,.76,1,1.1,1.1,0,0,1-1.13,1.13M85,25.82v1.5H86.1a.76.76,0,1,0,0-1.5Zm0,1.85v1.58h1.17a.79.79,0,1,0,0-1.58Z"/><rect class="cls-3" x="88.16" y="25.47" width="0.4" height="4.16"/><polygon class="cls-3" points="89.5 29.62 89.5 25.47 89.91 25.47 89.91 29.25 92.08 29.25 92.08 29.62 89.5 29.62"/><rect class="cls-3" x="92.71" y="25.47" width="0.41" height="4.16"/><polygon class="cls-3" points="95.25 25.82 95.25 29.62 94.84 29.62 94.84 25.82 93.62 25.82 93.62 25.47 96.45 25.47 96.45 25.82 95.25 25.82"/><path class="cls-3" d="M98.87,28.64H97c-.12.33-.24.66-.35,1h-.42c.5-1.38,1-2.77,1.51-4.15h.37l1.52,4.15h-.43c-.12-.32-.23-.65-.34-1m-1-2.65c-.06.21-.2.63-.36,1.06s-.34,1-.44,1.24h1.63L98.28,27l-.34-1Z"/><path class="cls-3" d="M102.81,28.8a1.35,1.35,0,0,1-1.34.86A1.38,1.38,0,0,1,100,28.14V27a1.46,1.46,0,0,1,2.78-.68l-.38.17a1,1,0,0,0-.94-.62A1,1,0,0,0,100.42,27v1.15a1,1,0,0,0,1.06,1.16,1,1,0,0,0,1-.66Z"/><path class="cls-3" d="M105.23,28.4A1.14,1.14,0,0,1,104,29.66a1.23,1.23,0,0,1-.91-.38l.29-.27a1,1,0,0,0,.6.27c.47,0,.89-.21.89-1V25.47h.41Z"/><rect class="cls-3" x="106.11" y="25.47" width="0.4" height="4.16"/></g></g></svg>